<?xml version="1.0" encoding="UTF-8"?>
<!DOCTYPE svg PUBLIC "-//W3C//DTD SVG 1.1//EN" "http://www.w3.org/Graphics/SVG/1.1/DTD/svg11.dtd">
<!-- Creator: CorelDRAW 2019 (64-Bit) -->
<svg xmlns="http://www.w3.org/2000/svg" xml:space="preserve" width="500mm" height="500mm" version="1.1" style="shape-rendering:geometricPrecision; text-rendering:geometricPrecision; image-rendering:optimizeQuality; fill-rule:evenodd; clip-rule:evenodd"
viewBox="0 0 50000 50000"
 xmlns:xlink="http://www.w3.org/1999/xlink">
 <defs>
  <style type="text/css">
   <![CDATA[
    .str0 {stroke:#FEFEFE;stroke-width:246.94;stroke-miterlimit:22.9256}
    .str5 {stroke:#FEFEFE;stroke-width:246.94;stroke-miterlimit:22.9256}
    .str2 {stroke:#FEFEFE;stroke-width:35.28;stroke-miterlimit:22.9256}
    .str6 {stroke:#FEFEFE;stroke-width:35.28;stroke-miterlimit:22.9256}
    .str1 {stroke:#332C2B;stroke-width:20;stroke-miterlimit:22.9256}
    .str3 {stroke:#17A3DF;stroke-width:20;stroke-miterlimit:22.9256}
    .str7 {stroke:#252222;stroke-width:20;stroke-miterlimit:22.9256}
    .str4 {stroke:#252222;stroke-width:20;stroke-miterlimit:22.9256}
    .fil3 {fill:none}
    .fil2 {fill:#FEFEFE}
    .fil5 {fill:#FFF000}
    .fil6 {fill:#E62129}
    .fil7 {fill:#E62129}
    .fil8 {fill:#7789A4}
    .fil1 {fill:#17A3DF}
    .fil0 {fill:#252222}
    .fil4 {fill:#252222}
   ]]>
  </style>
 </defs>
 <g id="Layer_x0020_1">
  <metadata id="CorelCorpID_0Corel-Layer"/>
  <g id="_2127412399008">
   <path class="fil0" d="M23570.74 26176.54c172.46,422.1 223.95,359.56 625.84,650.62 -81.75,728.54 -439.66,2257.84 -709.05,2917.34 -778.92,1906.69 -2310.52,1378.88 -3503.5,2035.81 -320.32,176.49 -584.41,537.51 -1055.08,811.11 -632.97,367.88 -1877.71,982.57 -1526.74,1910.91 1663,630.23 2227.39,-18.75 2767.82,-656.21 1165.73,-1375.22 4617.74,-1333.52 5443.11,-2403.78 282.01,-365.6 418.63,-758.44 650.26,-1235.87l425.12 -1023.9c296.55,-542.62 57.34,-139.36 266.65,-359.64 519.4,169.53 1013.57,570.33 1636.85,864.42 40.23,1821.01 -261.17,3232.72 -2342.7,3887 -481.18,151.25 -541.17,280.64 -813.76,594.2 -453.47,521.69 -1640.23,1134.46 -1911.82,1891.71 -211.24,589.26 22.95,716 24.6,719.93 1168.65,430.06 1901.85,152.71 2499.07,-688.39 452.46,-637.18 158.84,-530.37 830.95,-914.89 2667.97,-1526.39 3974.79,-1326.21 4382.81,-3281.1l110.38 -513.46c10.79,-37.49 32.55,-88.52 41.97,-118.51 9.42,-29.54 24.42,-79.74 44.9,-115.77l3402.99 1422.04c-271.77,591.83 135.25,148.05 -477.79,537.06 -919.47,583.5 -3284.21,938.85 -3383.7,2747.52 484.65,25.7 2077.97,-530.28 2676.11,-680.16 2053.28,-514.56 4989.91,-347.12 6858.56,-3351.42 534.4,-859.12 776.27,-1277.56 793.01,-2521.75 18.65,-1393.61 -117.69,-1818.91 -689.22,-2810.89 -616.15,-1069.53 -2560.79,-2438.72 -4030.2,-2783.56 -301.95,-980.28 -15.18,-1064.5 -529.1,-1963.39 -752.22,-171.18 -277.53,-21.67 -814.4,-623.01 -194.41,-217.82 -353.06,-390.37 -574.45,-538.51 -2157.98,-1443.99 -1883.65,184.72 -3389.64,-16.74 -936.75,-125.27 -786.97,-690.95 -1585.37,-710.24 -200.26,342.64 -1770.17,835.71 -2194.29,942.69l-798.12 198.35c-36.76,11.88 -71.96,28.62 -109.73,40.51 -39.6,12.43 -75.81,26.79 -116.5,38.68 -42.43,12.43 -80.38,22.86 -123.45,34.47 -43.71,11.71 -83.58,17.47 -126.83,28.44 -667.36,168.53 -174.75,-26.61 -604.26,200.45 -1.47,0.82 -182.62,104.88 -267.2,156.46l-175.48 101.68c-355.99,276.35 -806.63,2118.12 -993.45,2567.47 -13.72,32.83 -30.54,71.79 -44.35,104.34l-347.12 1092.57c-23.87,79.92 -117.23,315.67 -118.33,318.68 -51.21,148.69 -86.23,224.77 -125.37,496.73z"/>
   <path class="fil0" d="M20869.03 23342.97l420.64 0 506.78 -2624.72c96.84,-459.96 262.17,-742.89 374.65,-1330.42 98.94,-517.3 107.81,-917.27 491.24,-1245.92 622.64,-533.76 935.92,-71.42 1798.7,-786.78 381.87,-316.58 -25.33,-87.79 467.83,-308.54 514.09,-230.07 852.44,-184.8 1353.55,-503.85l459.05 -273.69c424.02,-309.82 352.7,286.58 -79.1,-973.88 -829.49,-2421.8 -723.42,-3393.12 -723.42,-6188.47 987.69,0 1981.41,145.21 3195.24,145.21 73.25,-141.37 75.53,-160.57 180.05,-333.68l375.1 -537.87c609.3,-2020.36 69.14,-2344.9 -194.86,-4129.42 1951.32,-1236.78 734.93,-1575.77 639.92,-1686.5 -277.62,-323.62 -54.41,-150.61 -273.87,-556.62 -998.11,-96.48 -2129.55,126.46 -3148.05,258.97 -850.52,110.55 -2300.46,-123.82 -3309.72,126.74 -634.9,157.65 289.51,99.03 -660.41,166.06l-2578.81 71.87c-531.75,131.32 -377.02,367.43 -952.3,765.66 -560.73,388.27 -689.12,281.29 -526.26,1185.48l1898.1 24.88c-436.09,819.52 -1007.25,600.32 -672.84,1662.72 2056.12,372.45 1170.76,-1302.34 3599.23,339.62 540.89,365.78 102.6,256.32 842.75,554.88l472.4 197.98c-383.33,755.51 -2456.83,1891.24 -3180.24,2393.45 -2057.58,1428.27 -3669.83,2257.57 -4649.19,4792.22 -1008.35,12.52 -1519.43,-336.15 -2846.1,-909.69 -688.03,-297.47 -1891.98,-985.49 -2685.07,-850.7 -446.98,1122.02 -111.38,1884.57 -777.82,4181 -153.99,530.65 -501.75,1541.56 -418.63,1978.39 124.73,655.65 415.52,1411.8 1143.87,1554.54 1448.56,-1094.31 178.13,-1642.24 322.34,-2619.13 155.27,-1051.7 51.03,-1426.62 370.81,-2422.9l323.71 -743.81c489.4,188.47 1075.38,811.02 1489.62,1177.98 256.32,226.97 438.93,396.05 732.37,591.83 248.09,165.6 621.73,364.31 752.95,527.54l-2506.02 -117.96c-212.51,1614.35 -328.37,2870.15 -456.94,4418.2 -70.87,853.26 -291.25,1222.61 148.41,1870.67 396.04,583.78 715.64,1096.78 1160.7,1333.25 219.1,-333.86 468.28,-674.58 548.2,-1219.77 126.56,-863.14 -952.2,-1763.59 -336.33,-3793.28l228.34 -513.36c16.09,-28.99 48.74,-77 62.45,-100.5 14,-23.87 40.97,-69.22 64.75,-101.59 1349.53,230.62 2295.06,1564.15 4465.02,2094.89l581.95 171.64c630.51,244.43 815.95,1810.86 1505.26,2287.38z"/>
   <path class="fil0" d="M21142.35 24648.88c-548.02,44.99 -1039.62,559.18 -1573.75,880.05 -555.79,333.86 -1264.76,497.82 -1273.08,1238.61 958.43,166.7 2027.68,-134.33 3582.96,-164.32 127.2,-2.47 471.3,-8.23 580.67,-26.16 571.25,-93.82 -246.54,106.63 235.28,-55.78 391.02,-131.86 101.69,18.56 252.11,-151.7 26.52,-789.35 87.61,-807.73 289.06,-1443.72 62,-195.78 88.24,-402.99 163.59,-696.25 472.58,-1841.59 752.68,-2023.84 929.07,-2558.15 81.02,-245.25 51.67,-369.43 158.02,-652.82 198.16,-74.34 534.94,-168.8 707.5,-231.26 48.28,-17.56 223.03,-87.6 328.74,-118.33l3293.17 -1070.71c313.38,-97.48 266.65,-46.18 464.44,-177.68 -57.7,-278.17 -532.93,-659.31 -1088.36,-1398.36l-826.93 -994c-434.45,-229.34 -2301.37,768.04 -2444.2,1084.26 470.84,235.37 194.5,-99.13 286.76,559.81 77.27,551.5 -63.09,968.4 -374.37,1367.73 -20.21,25.88 -46.91,57.7 -68.03,82.58l-222.21 232.99c-206.57,183.72 -23.5,45.36 -259.88,196.24 -501.03,319.6 -1432.29,513.28 -1976.38,610.57 -6.31,948.19 -56.79,1161.16 -247.63,1856.32 -509.99,1857.41 -230.53,1344.86 -916.55,1630.08z"/>
   <path class="fil1" d="M31297.2 1806.64c-269.3,553.24 1112.05,1666.47 1468.68,2075.04 2888.72,187.74 3218.37,583.33 3693.7,3268.49 2268.63,269.57 2059.41,596.39 1885.66,-1392.42 -161.21,-1874.88 -1735.24,-3186.91 -3347.21,-3696.99 -787.61,-249.18 -2884.51,-530.65 -3700.83,-254.12z"/>
   <path class="fil2" d="M35306.11 32273.47c2262.87,-330.11 3927.15,-6243.7 510.34,-6827.84 -985.67,2171.88 -1257.08,4348.7 -510.34,6827.84z"/>
   <path class="fil0" d="M32133.64 8704.53c-2450.7,1660.9 1277.29,1042 2536.29,1036.52l1083.98 -1699.12c195.59,-637.92 209.4,-1480.75 43.25,-2078.8 -326.73,-1175.69 -1334.53,-1689.79 -2673.64,-1708.72 -22.95,2958.03 1736.16,1092.57 -989.88,4450.12z"/>
   <path class="fil0" d="M30227.49 6372.8c-20.02,1234.13 735.67,1663.82 1908.62,1657.51 315.12,-441.85 1051.51,-860.85 1094.58,-1718.14l-3003.2 60.63z"/>
   <path class="fil0" d="M30166.32 5885.77c122.81,-36.21 -785.6,65.11 2961.13,67.85 1.56,-574.63 -258.51,-1232.39 -506.6,-1631.63 -955.77,-139.09 -2330.72,582.68 -2454.53,1563.78z"/>
   <ellipse class="fil3 str0" cx="21241.39" cy="3666.43" rx="4966.23" ry="5443.57"/>
   <line class="fil3 str0" x1="18684.98" y1="4607.48" x2="26207.71" y2= "4607.48" />
   <line class="fil3 str1" x1="31024.7" y1="9662.5" x2="34191.04" y2= "6419.71" />
   <path class="fil3 str1" d="M31930.73 8856.23c50.2,-17.83 194.04,-130.03 202.91,-191.57 45.17,-74.62 59.62,-29.45 145.31,-173.93 7.86,-13.16 10.33,-20.02 20.2,-31.64l43.35 -12.52"/>
   <path class="fil3 str1" d="M30959.78 9677.77c75.62,-83.22 325.54,-193.68 388.45,-193.68l413.33 0"/>
   <path class="fil4 str2" d="M31285.59 20266.61c1424.79,-1034.96 2849.58,-2070.02 3736.76,-3894.69 887.19,-1824.67 1236.69,-4439.05 1411.53,-5746.25 174.75,-1307.19 174.75,-1307.19 174.75,-1307.19 -1814.61,235.2 -3629.22,470.48 -5416.95,470.48 -1787.73,0 -3548.58,-235.28 -4429,-352.88 -880.42,-117.6 -880.42,-117.6 -880.42,-117.6 188.1,2493.4 376.29,4986.9 1276.83,6811.57 900.54,1824.67 2513.52,2980.62 4126.5,4136.56z"/>
   <path class="fil5 str1" d="M34106.52 15849.01c-672.06,1382.22 -1751.35,2166.28 -2830.65,2950.28 -1221.85,-875.64 -2443.71,-1751.28 -3125.88,-3133.5 -682.17,-1382.21 -824.73,-3271.06 -967.22,-5159.85 0,0 0,0 666.94,89.08 666.93,89.08 2000.79,267.32 3355.02,267.32 1354.23,0 2728.82,-178.24 4103.42,-356.4 0,0 0,0 -132.38,990.22 -132.44,990.21 -397.19,2970.64 -1069.25,4352.85z"/>
   <g>
    <path class="fil6" d="M32000.44 11772.04c-245.65,263.01 -368.42,578.86 -368.42,948.55l0 2998.97 754.42 0 0 -1708.65c0,-82.87 34.7,-124.3 104.32,-124.3 19.43,0 38.76,4.21 58.09,12.41 150.88,62.15 309.45,93.28 475.82,93.28 112.22,0 230.27,-12.41 354.03,-37.33 228.19,-107.69 411.91,-272.32 551.26,-493.89 139.24,-221.68 208.86,-469.17 208.86,-742.59 0,-368.59 -121.89,-684.44 -365.56,-947.45 -243.79,-263.11 -539.62,-394.61 -887.84,-394.61 -344.37,0 -639.33,131.5 -884.98,395.61zm533.91 567.45c98.61,-103.48 215.67,-155.32 351.07,-155.32 139.25,0 257.18,51.84 353.93,155.32 96.74,103.58 145.06,229.88 145.06,379 0,149.12 -48.32,275.52 -145.06,379.1 -96.75,103.48 -214.68,155.32 -353.93,155.32 -135.4,0 -252.46,-51.84 -351.07,-155.32 -98.72,-103.58 -147.91,-229.98 -147.91,-379.1 0,-149.12 49.19,-275.42 147.91,-379z"/>
    <path class="fil7" d="M31184.87 15719.56l0 -2998.97c0,-369.69 -121.9,-685.54 -365.57,-948.55 -243.78,-264.11 -539.62,-395.61 -887.83,-395.61 -344.38,0 -639.22,131.5 -884.98,395.61 -245.65,263.01 -368.42,578.86 -368.42,948.55l0 2998.97 754.41 0 0 -1117.38c0,-83.87 38.65,-125.3 116.07,-125.3l765.94 0c77.31,0 115.96,41.43 115.96,125.3l0 1117.38 754.42 0zm-754.42 -3001.07l0 987.98c0,82.86 -38.65,124.3 -115.96,124.3l-765.94 0c-77.42,0 -116.07,-41.44 -116.07,-124.3l0 -987.98c0,-149.12 49.3,-275.42 147.92,-379 98.61,-103.48 215.67,-155.32 351.07,-155.32 139.24,0 257.29,51.84 353.92,155.32 96.75,103.58 145.06,229.88 145.06,379z"/>
   </g>
   <path class="fil3 str3" d="M31297.2 1806.64c1616.18,27.52 3232.45,54.96 4400.1,485.48 1167.65,430.42 1886.86,1263.75 2257.94,2157.61 371.08,893.78 394.12,1848 417.16,2802.21"/>
   <path class="fil3 str3" d="M32765.88 3881.68c1086.36,122.17 2172.62,244.34 2788.31,789.07 615.6,544.74 760.45,1512.12 832.97,1995.77 72.42,483.65 72.42,483.65 72.42,483.65"/>
   <line class="fil3 str3" x1="36459.58" y1="7150.17" x2="38372.4" y2= "7251.94" />
   <line class="fil3 str3" x1="31297.2" y1="1806.64" x2="32765.88" y2= "3881.68" />
   <path class="fil3 str1" d="M26945.11 16168c673.12,924.77 1346.33,1849.45 2065.17,2546.9 718.75,697.44 1483.22,1167.64 2247.69,1637.76 420.01,-332.68 840.01,-665.35 1412.08,-627.13 571.98,38.23 1296.13,447.35 1667.48,768.32 371.26,320.87 389.83,553.6 399.15,670.01 9.24,116.31 9.24,116.31 9.24,116.31"/>
   <polyline class="fil3 str4" points="26945.11,16168 23798.53,15917.35 20451.68,17691.64 20869.03,23342.97 23570.74,26176.54 34736.68,21163.86 "/>
   <path class="fil4 str4" d="M24461.04 17355.13c-862.78,715.36 -1176.06,253.02 -1798.7,786.78 -383.43,328.65 -392.3,728.62 -491.24,1245.92 -112.48,587.53 -277.81,870.46 -374.65,1330.42l-506.78 2624.72 -420.64 0 864.6 906.75c60.81,-202.45 142.11,-563.84 325.27,-1230.92 190.84,-695.16 241.32,-908.13 247.63,-1856.32 544.09,-97.29 1475.35,-290.97 1976.38,-610.57 236.38,-150.88 53.31,-12.52 259.88,-196.24l222.21 -232.99c21.12,-24.88 47.82,-56.7 68.03,-82.58 311.28,-399.33 451.64,-816.23 374.37,-1367.73 -92.26,-658.94 184.08,-324.44 -286.76,-559.81 142.83,-316.22 2009.75,-1313.6 2444.2,-1084.26l826.93 994c555.43,739.05 1030.66,1120.19 1088.36,1398.36 -197.79,131.5 -151.06,80.2 -464.44,177.68l-3293.17 1070.71c-105.71,30.73 -280.46,100.77 -328.74,118.33 -172.56,62.46 -509.34,156.92 -707.5,231.26 -106.35,283.39 -77,407.57 -158.02,652.82 -176.39,534.31 -456.49,716.56 -929.07,2558.15 -75.35,293.26 -101.59,500.47 -163.59,696.25 -102.88,324.72 -169.08,488.4 -212.88,675.95l548.02 574.73c39.14,-271.96 74.16,-348.04 125.37,-496.73 1.1,-3.01 94.46,-238.76 118.33,-318.68l347.12 -1092.57c13.81,-32.55 30.63,-71.51 44.35,-104.34 186.82,-449.35 637.46,-2291.12 993.45,-2567.47l175.48 -101.68c84.58,-51.58 265.73,-155.64 267.2,-156.46 429.51,-227.06 -63.1,-31.92 604.26,-200.45 43.25,-10.97 83.12,-16.73 126.83,-28.44 43.07,-11.61 81.02,-22.04 123.45,-34.47 40.69,-11.89 76.9,-26.25 116.5,-38.68 37.77,-11.89 72.97,-28.63 109.73,-40.51l798.12 -198.35c424.12,-106.98 1994.03,-600.05 2194.29,-942.69 798.4,19.29 648.62,584.97 1585.37,710.24 1211.26,162.04 1270.88,-859.84 2370.5,-514.73 -323.44,-169.91 -685.37,-303.87 -1001.04,-325 -572.07,-38.22 -992.07,294.45 -1412.08,627.13 -764.47,-470.12 -1528.94,-940.32 -2247.69,-1637.76 -718.84,-697.45 -1392.05,-1622.13 -2065.26,-2546.9 -46.64,10.61 -114.03,35.66 -203.55,101.05l-459.05 273.69c-501.11,319.05 -839.46,273.78 -1353.55,503.85 -493.16,220.75 -85.96,-8.04 -467.83,308.54z"/>
   <g>
    <polyline class="fil3 str5" points="27396.3,15866.42 22718.67,18043.88 21387.97,23487.72 "/>
    <polyline class="fil3 str5" points="29896.37,18971.31 24855.8,20947.23 22920.3,26552.37 "/>
    <path class="fil3 str5" d="M24456.92 17234.78c200.17,888.02 400.34,1776.03 14.27,2305.21 -386.08,529.19 -1358.49,699.55 -1843.42,779.93 -485.02,80.38 -482.73,70.78 -480.35,61.18"/>
   </g>
   <path class="fil3 str5" d="M16995.19 14548.35c685.28,967.2 1370.47,1934.4 1659.34,2807.78 288.87,873.38 181.43,1653.03 540.43,2705.1 359.01,1051.97 1184.57,2376.35 1597.35,3038.59 412.78,662.23 412.78,662.23 412.78,662.23"/>
   <line class="fil3 str6" x1="21387.97" y1="23487.72" x2="21142.35" y2= "24648.88" />
   <polygon class="fil4 str7" points="21843.64,24172.54 21369.78,24706.85 21576.53,23806.22 "/>
   <ellipse class="fil3 str5" cx="17919.87" cy="1600.16" rx="5331.09" ry="7307.28"/>
   <path class="fil3 str5" d="M23188.5 25775.74c1719.61,1452.95 3439.21,2906 5384.68,4038.44 1945.47,1132.35 4116.9,1944.1 5202.61,2350.02 1085.62,405.91 1085.62,405.91 1085.62,405.91"/>
   <path class="fil2" d="M33039.54 54086.59c237.31,524.86 47.99,294.18 862.4,566.89l523.01 180.43c1012.88,374.26 -212.78,6835.99 639.81,7597.24 427.02,341.91 2082.09,334.62 2752.93,103.93 646.7,-1361.54 -128.2,-8849 571.26,-7757.91l944.21 -171.29c717.23,-182.68 383.67,51.05 635.56,-495.16 -1236.93,-600.7 -1740.45,653.86 -1928.17,-1020.7 -89.89,-802.08 42.68,-1952.97 -46.01,-2879.67l-3126.13 -64.43c-165.58,1092.82 -16.17,1791.35 -63.5,2727.34 -79.81,1582.28 -502.99,809.37 -1765.37,1213.33z"/>
   <path class="fil3 str1" d="M6416.7 47160.68c-7.53,0 -15.06,-0.11 -22.56,-0.29 7.5,0.17 15.02,0.28 22.56,0.29zm-31.22 -0.56c-4.88,-0.15 -9.75,-0.33 -14.6,-0.56 4.86,0.23 9.72,0.41 14.6,0.56zm-313.77 -61.07c-6.56,-2.42 -13.07,-4.93 -19.56,-7.48 6.49,2.55 13,5.06 19.56,7.48zm241.22 56.17c-7.35,-0.76 -14.68,-1.61 -21.99,-2.53 7.31,0.92 14.64,1.76 21.99,2.53zm-26.11 -3.08c-6.2,-0.82 -12.34,-1.69 -18.5,-2.61 6.15,0.92 12.32,1.8 18.5,2.61zm-28.99 -4.27c-4.24,-0.69 -8.45,-1.37 -12.66,-2.12l12.66 2.12zm-45.61 -8.42c-4.79,-1.01 -9.59,-2.06 -14.35,-3.14 4.78,1.07 9.55,2.13 14.35,3.14zm-22.81 -5.04c-6.99,-1.64 -13.89,-3.33 -20.82,-5.11 6.91,1.77 13.85,3.48 20.82,5.11zm-28.5 -7.16c-4.7,-1.24 -9.36,-2.5 -14.02,-3.82 4.66,1.31 9.33,2.58 14.02,3.82zm-68.03 -20.68c-5.3,-1.82 -10.55,-3.69 -15.82,-5.6 5.25,1.91 10.53,3.78 15.82,5.6zm-112.1 -46.32c-5.16,-2.51 -10.29,-5.08 -15.39,-7.67 5.11,2.6 10.23,5.17 15.39,7.67zm-25.65 -12.96c-4.63,-2.41 -9.24,-4.82 -13.8,-7.31 4.57,2.48 9.18,4.9 13.8,7.31zm-80.88 -47.09c-3.85,-2.5 -7.67,-5.04 -11.47,-7.57 3.81,2.54 7.62,5.08 11.47,7.57zm-80.53 -57.88c-1.89,-1.47 -3.71,-2.96 -5.54,-4.46l5.54 4.46z"/>
   <path class="fil3 str1" d="M7462.51 45394.94c-4.4,-23.97 -6.71,-48.66 -6.71,-73.86l0 -1236.65m0 -1553.84l0 -702.02c0,-225.56 184.54,-410.1 410.1,-410.1 225.56,0 410.1,184.54 410.1,410.1l0 1416.39m0 575.11l0 1501.01c0,12.92 -0.61,25.72 -1.79,38.34"/>
   <path class="fil3 str1" d="M5412.05 46155.26l0 -1957.86m952.44 -952.44l1098.02 0m0 892.91l0 1958.65"/>
   <line class="fil3 str1" x1="5412.05" y1="42530.59" x2="7455.8" y2= "42530.59" />
   <line class="fil3 str1" x1="7462.51" y1="43244.96" x2="8276" y2= "43244.96" />
   <path class="fil3 str1" d="M5412.05 45481.68l0 -1284.28c0,-523.85 428.59,-952.44 952.44,-952.44l145.58 0m945.73 839.47c4.42,37.06 6.71,74.77 6.71,112.97l0 1284.28c0,38.21 -2.29,75.91 -6.71,112.97"/>
   <path class="fil3 str1" d="M7455.8 46022.66l0 -1521.05 6.71 0m811.7 0l0 1931.46"/>
   <path class="fil3 str1" d="M5412.05 42530.59l0 -741.7c0,-552.99 452.44,-1005.42 1005.4,-1005.42l2910.45 0c552.96,0 1005.4,452.43 1005.4,1005.42l0 3913.6m-3916.6 1458.19c-552.62,-0.4 -1004.65,-452.68 -1004.65,-1005.42l0 -1957.86"/>
   <path class="fil3 str1" d="M7462.51 45394.94c-4.4,-23.97 -6.71,-48.66 -6.71,-73.86l0 -1236.65m0 -1553.84l0 -702.02c0,-225.56 184.54,-410.1 410.1,-410.1 225.56,0 410.1,184.54 410.1,410.1l0 1416.39m0 575.11l0 1501.01c0,12.92 -0.61,25.72 -1.79,38.34"/>
   <path class="fil3 str1" d="M5412.05 46155.26l0 -1957.86m952.44 -952.44l1098.02 0m0 892.91l0 1958.65"/>
   <line class="fil3 str1" x1="5412.05" y1="42530.59" x2="7455.8" y2= "42530.59" />
   <line class="fil3 str1" x1="7462.51" y1="43244.96" x2="8276" y2= "43244.96" />
   <path class="fil3 str1" d="M5412.05 45481.68l0 -1284.28c0,-523.85 428.59,-952.44 952.44,-952.44l145.58 0m945.73 839.47c4.42,37.06 6.71,74.77 6.71,112.97l0 1284.28c0,38.21 -2.29,75.91 -6.71,112.97"/>
   <path class="fil3 str1" d="M7865.9 46422.76c-225.56,0 -410.1,-181.75 -410.1,-403.91l0 -1800.81c0,-269.9 212.08,-402.55 420.55,-397.97m399.65 397.97l0 1800.81c0,12.73 -0.61,25.33 -1.79,37.76"/>
   <path class="fil3 str1" d="M7455.8 46022.66l0 -1521.05 6.71 0m811.7 0l0 1931.46"/>
   <path class="fil3 str1" d="M14967.9 47160.68l-2910.45 0c-552.96,0 -1005.4,-452.43 -1005.4,-1005.42l0 -4366.37c0,-552.99 452.44,-1005.42 1005.4,-1005.42l1858.55 0m2057.3 1005.42l0 4366.37"/>
   <path class="fil3 str1" d="M13102.51 45394.94c-4.4,-23.97 -6.71,-48.66 -6.71,-73.86l0 -3492.51c0,-225.56 184.54,-410.1 410.1,-410.1 225.56,0 410.1,184.54 410.1,410.1l0 3492.51"/>
   <path class="fil3 str1" d="M13095.8 43244.96l6.71 0 0 2851.56m-2010.88 337.6l-39.58 0 0 -3189.16"/>
   <line class="fil3 str1" x1="13102.51" y1="43824.13" x2="13095.8" y2= "43824.13" />
   <path class="fil3 str1" d="M13095.8 44084.43c4.42,37.06 6.71,74.77 6.71,112.97l0 1284.28c0,38.21 -2.29,75.91 -6.71,112.97m-2043.75 -112.97l0 -1284.28"/>
   <path class="fil3 str1" d="M13916 44194.23l0 1828.43c0,225.56 -184.54,410.1 -410.1,410.1 -225.56,0 -410.1,-184.54 -410.1,-410.1l0 -1828.43c0,-25.2 2.31,-49.89 6.71,-73.86"/>
   <line class="fil3 str1" x1="7865.9" y1="46422.76" x2="8274.21" y2= "46423.07" />
   <line class="fil3 str1" x1="7855.54" y1="43820.07" x2="8276" y2= "43820.07" />
   <path class="fil3 str1" d="M29029.88 40752.95l1051.9 0c16.64,0 33.21,0.41 49.65,1.22m955.75 1005.42l0 4365.15c0,552.99 -452.44,1005.42 -1005.4,1005.42l-2910.45 0c-552.96,0 -1005.4,-452.43 -1005.4,-1005.42l0 -4366.37m1005.4 -1005.42l1038.35 0"/>
   <path class="fil3 str1" d="M28216.39 45364.42c-4.4,-23.97 -6.71,-48.66 -6.71,-73.86l0 -3492.51m820.2 0l0 3492.51c0,12.92 -0.61,25.72 -1.79,38.34"/>
   <path class="fil3 str1" d="M26165.93 43214.44l0 3189.16 39.58 0m2010.88 -337.6l0 -2851.56 -6.71 0 0 -2461.49"/>
   <line class="fil3 str1" x1="28216.39" y1="43793.61" x2="28209.68" y2= "43793.61" />
   <path class="fil3 str1" d="M28209.68 44053.91c4.42,37.06 6.71,74.77 6.71,112.97l0 1284.28c0,38.21 -2.29,75.91 -6.71,112.97m-2043.75 -112.97l0 -1284.28"/>
   <path class="fil3 str1" d="M29029.88 44163.71l0 1828.43c0,225.56 -184.54,410.1 -410.1,410.1 -225.56,0 -410.1,-184.54 -410.1,-410.1l0 -1828.43c0,-25.2 2.31,-49.89 6.71,-73.86"/>
   <path class="fil3 str1" d="M28209.68 45992.14l0 -1521.05 6.71 0m811.7 857.81l0 701.58"/>
   <path class="fil3 str1" d="M13916 46114.58l0 -3855.31m0 -1475.8l0 -1752.25 2057.3 0 0 8129.46 -2057.3 0"/>
   <path class="fil3 str1" d="M18697.02 40793.3l0 6377.21 -2057.3 0 0 -1046.1 0 -5331.11m0 -492.11l0 -1260.14 2057.3 0 0 1260.14"/>
   <path class="fil3 str1" d="M16639.72 40793.3l2057.3 0m0 -492.11l-2057.3 0"/>
   <polyline class="fil3 str1" points="10333.3,45702.49 10337.06,45702.49 10337.06,47163.27 8277.97,47163.27 6394.14,47160.39 "/>
   <path class="fil3 str1" d="M21703.06 40793.73l2910.45 0c552.96,0 1005.4,452.43 1005.4,1005.42l0 4366.37c0,552.99 -452.44,1005.42 -1005.4,1005.42l-1858.55 0m-2057.3 -1005.42l0 -4366.37"/>
   <path class="fil3 str1" d="M23568.45 42559.47c4.4,23.97 6.71,48.66 6.71,73.86l0 3492.51c0,225.56 -184.54,410.1 -410.1,410.1 -225.56,0 -410.1,-184.54 -410.1,-410.1l0 -3492.51"/>
   <path class="fil3 str1" d="M23575.16 44709.45l-6.71 0 0 -2851.56m2050.46 -58.74l0 2910.3"/>
   <line class="fil3 str1" x1="23568.45" y1="44130.28" x2="23575.16" y2= "44130.28" />
   <path class="fil3 str1" d="M23575.16 43869.98c-4.42,-37.06 -6.71,-74.77 -6.71,-112.97l0 -1284.28c0,-38.21 2.29,-75.91 6.71,-112.97m2043.75 112.97l0 1284.28"/>
   <path class="fil3 str1" d="M22754.96 43760.18l0 -1828.43c0,-225.56 184.54,-410.1 410.1,-410.1 225.56,0 410.1,184.54 410.1,410.1l0 1828.43c0,25.2 -2.31,49.89 -6.71,73.86"/>
   <path class="fil3 str1" d="M22754.96 41839.83l0 3855.31m0 1475.8l0 1752.25 -2057.3 0 0 -8129.46 2057.3 0"/>
   <path class="fil3 str1" d="M40484.93 42432.91l0 -741.7c0,-552.99 -452.44,-1005.42 -1005.4,-1005.42l-2910.45 0m-1005.4 1005.42l0 4366.37m1005.4 1005.42l1051.9 0"/>
   <path class="fil3 str1" d="M38441.18 42432.91l0 -702.02c0,-225.56 -184.54,-410.1 -410.1,-410.1 -225.56,0 -410.1,184.54 -410.1,410.1l0 3492.51c0,12.92 0.61,25.72 1.79,38.34"/>
   <line class="fil3 str1" x1="40484.93" y1="42432.91" x2="38441.18" y2= "42432.91" />
   <path class="fil3 str1" d="M37620.98 44096.55l0 1828.43c0,12.92 0.61,25.72 1.79,38.34"/>
   <line class="fil3 str1" x1="37622.77" y1="45261.74" x2="37622.77" y2= "45963.32" />
   <line class="fil3 str1" x1="29029.88" y1="43714.24" x2="29029.88" y2= "40752.95" />
   <polyline class="fil3 str1" points="28209.68,42751.77 28209.68,40752.95 26165.93,40752.95 26165.93,42751.77 "/>
   <polyline class="fil3 str1" points="28209.68,42751.77 28209.68,40752.95 26165.93,40752.95 26165.93,42751.77 "/>
   <polyline class="fil3 str1" points="30131.43,40754.17 31089.5,40754.17 31089.5,41759.59 31087.18,41759.59 "/>
   <path class="fil3 str1" d="M33975.76 47130.98l-1038.48 0c-552.96,0 -1005.4,-575.66 -1005.4,-1279.27l0 -3703m0 3271.02l0 -3271.02m2453.85 4068.81l675.27 0 0 911.87 -475.91 0m-609.33 -1433.21l0 -4193.27m0 5628.07l0 -12.72 609.33 11.13m-609.46 -1446.4l0 -1935.35 6.71 0m403.39 2469.88c-225.56,0 -410.1,-234.8 -410.1,-521.8l0 -2326.45c0,-32.07 2.31,-63.48 6.71,-93.98m-6.71 -58.45c4.42,47.15 6.71,95.13 6.71,143.73l0 1634.09c0,48.62 -2.29,96.58 -6.71,143.74m-2043.75 -143.74l0 -1634.09m2050.46 -474.93l-6.71 0m0 -736.93l6.71 0 0 3628.26m-2050.46 74.74l0 -3703m2050.46 2735.59c-4.4,-30.51 -6.71,-61.91 -6.71,-93.98l0 -3287.41"/>
   <path class="fil3 str1" d="M18697.02 40793.3l0 6377.21 -2057.3 0 0 -1046.1 0 -5331.11m0 -492.11l0 -1260.14 2057.3 0 0 1260.14"/>
   <polyline class="fil3 str1" points="37620.98,41730.89 37620.98,47063 35563.68,47063 35563.68,40685.79 37620.98,40685.79 "/>
   <rect class="fil3 str1" x="40998.35" y="40686.48" width="4899.84" height="6375.8" rx="1006.64" ry="1006.64"/>
   <path class="fil3 str1" d="M43884.3 42354.26c4.4,23.97 6.71,48.66 6.71,73.86l0 3492.51c0,225.56 -184.54,410.1 -410.1,410.1 -225.56,0 -410.1,-184.54 -410.1,-410.1l0 -3492.51"/>
   <path class="fil3 str1" d="M43070.81 43554.97l0 -1828.43c0,-225.56 184.54,-410.1 410.1,-410.1 225.56,0 410.1,184.54 410.1,410.1l0 1828.43c0,25.2 -2.31,49.89 -6.71,73.86"/>
   <path class="fil3 str1" d="M31931.88 44542.39l-13.34 0 0 -3039.48m0 -800.19l0 -1825.79 2057.3 0 -0.07 1825.79"/>
   <path class="fil3 str1" d="M33975.77 40702.72l1171 0 0 800.19 -1171.14 0m-2057.09 0l-370.1 0 0 -800.19 370.1 0"/>
   <path class="fil4 str1" d="M7455.8 44501.61l0 -283.57 0 -133.61c2.43,20.41 4.22,41.03 5.34,61.81 0.43,-2.81 0.89,-5.59 1.37,-8.36 36.21,-207.96 213.29,-313.89 393.03,-317.81 6.94,-0.15 13.87,-0.15 20.81,0l399.65 0 0 397.97 0 1103.04 0 697.77c0,12.73 -0.61,25.33 -1.79,37.76l0 366.46 -408.31 -0.31c-200.36,0 -368.35,-143.41 -403.39,-331.16 -4.18,-22.4 -6.47,-45.44 -6.71,-68.94l0 -428.01 0 -273.57 0 -819.47zm2877.5 1200.88l0 -3913.6c0,-552.99 -452.44,-1005.42 -1005.4,-1005.42l-2910.45 0c-552.96,0 -1005.4,452.43 -1005.4,1005.42l0 741.7 2043.75 0 0 -702.02c0,-225.56 184.54,-410.1 410.1,-410.1 225.56,0 410.1,184.54 410.1,410.1l0 1416.39 -813.49 0 -1098.02 0c-523.85,0 -952.44,428.59 -952.44,952.44l0 1957.86c0,545.2 439.78,992.66 982.09,1005.13l1883.83 2.88 2059.09 0 0 -1460.78 -3.76 0zm-2877.5 -381.41l0 -819.47 0 819.47z"/>
   <path class="fil8 str1" d="M11052.05 46155.26c0,96.65 13.82,190.23 39.58,278.86 121.64,418.46 509.51,726.56 965.82,726.56l1858.55 0 2057.3 0 0 -8129.46 -2057.3 0 0 1752.25 -1858.55 0c-552.96,0 -1005.4,452.43 -1005.4,1005.42l0 4366.37zm2043.75 -1961.03l0 -109.8 0 -260.3 0 -579.17 0 -1416.39c0,-225.56 184.54,-410.1 410.1,-410.1 225.56,0 410.1,184.54 410.1,410.1l0 430.7 0 3763.39c0,225.56 -184.54,410.1 -410.1,410.1 -200.36,0 -368.36,-145.61 -403.39,-336.24 -4.41,-23.97 -6.71,-48.66 -6.71,-73.86l0 -428.01 0 -273.57 0 -1126.85z"/>
   <polygon class="fil8 str1" points="16639.72,40793.3 16639.72,46124.41 16639.72,47170.51 18697.02,47170.51 18697.02,40793.3 "/>
   <polygon class="fil8 str1" points="16639.72,40301.19 18697.02,40301.19 18697.02,39041.05 16639.72,39041.05 "/>
   <path class="fil8 str1" d="M20697.66 40793.73l0 8129.46 2057.3 0 0 -1752.25 1858.55 0c552.96,0 1005.4,-452.43 1005.4,-1005.42l0 -4366.37c0,-552.99 -452.44,-1005.42 -1005.4,-1005.42l-1858.55 0 -2057.3 0zm2057.3 1839.6l0 -701.58c0,-225.56 184.54,-410.1 410.1,-410.1 200.36,0 368.36,145.61 403.39,336.24 4.41,23.97 6.71,48.66 6.71,73.86l0 428.01 0 273.57 0 1126.85 0 109.8 0 260.3 0 579.17 0 1416.39c0,225.56 -184.54,410.1 -410.1,410.1 -225.56,0 -410.1,-184.54 -410.1,-410.1l0 -2365.66 0 -1126.85z"/>
   <path class="fil8 str1" d="M26165.93 42751.77l0 462.67 0 2910.3c0,96.65 13.82,190.23 39.58,278.86 121.64,418.46 509.51,726.56 965.82,726.56l2910.45 0c552.96,0 1005.4,-452.43 1005.4,-1005.42l0 -4365.15 2.32 0 0 -1005.42 -958.07 0c-16.44,-0.81 -33.01,-1.22 -49.65,-1.22l-1051.9 0 0 1045.1 0 2365.66 0 1126.85 0 701.58c0,12.92 -0.61,25.71 -1.79,38.34 -19.49,207.76 -195.67,371.76 -408.31,371.76 -200.36,0 -368.36,-145.61 -403.39,-336.24 -4.41,-23.97 -6.71,-48.66 -6.71,-73.86l0 -428.01 0 -273.57 0 -819.47 0 -307.38 0 -109.8 0 -260.3 0 -579.17 0 -2461.49 -2043.75 0 0 1998.82z"/>
   <path class="fil8 str1" d="M31931.88 44542.39l0 1309.32c0,703.61 452.44,1279.27 1005.4,1279.27l1038.48 0 0 -12.72 609.33 11.13 475.91 0 0 -911.87 -675.27 0c-225.44,0 -409.9,-234.55 -410.1,-521.34 0,-0.15 0,-0.31 0,-0.46l0 -557.32 0 -348.08 0 -1042.68 0 -378.37 0 -152.43 0 -331.2 0 -736.93 0 -645.8 1171.14 0 0 -800.19 -1171 0 0.07 -1825.79 -2057.3 0 0 1825.79 -370.1 0 0 800.19 370.1 0 0 3039.48 13.34 0z"/>
   <path class="fil8 str1" d="M35563.68 40685.79l0 6377.21 2057.3 0 0 -1138.02 0 -701.58 0 -3492.51c0,-225.56 184.54,-410.1 410.1,-410.1 225.56,0 410.1,184.54 410.1,410.1l0 702.02 2043.75 0 0 -741.7c0,-552.99 -452.44,-1005.42 -1005.4,-1005.42l-1858.55 0 -2057.3 0z"/>
   <path class="fil4 str1" d="M40998.35 41693.12l0 4362.52c0,553.66 452.98,1006.64 1006.64,1006.64l2886.56 0c553.66,0 1006.64,-452.98 1006.64,-1006.64l0 -4362.52c0,-553.66 -452.98,-1006.64 -1006.64,-1006.64l-2886.56 0c-553.66,0 -1006.64,452.98 -1006.64,1006.64zm2072.46 735l0 -701.58c0,-225.56 184.54,-410.1 410.1,-410.1 225.56,0 410.1,184.54 410.1,410.1l0 701.58 0 1126.85 0 2365.66c0,225.56 -184.54,410.1 -410.1,410.1 -225.56,0 -410.1,-184.54 -410.1,-410.1l0 -3492.51z"/>
   <path class="fil8 str1" d="M15973.3 47160.68l0 -8129.46 -2057.3 0 0 1752.25 -1858.55 0c-552.96,0 -1005.4,452.43 -1005.4,1005.42l0 1456.07 0 2910.3c0,96.65 13.82,190.23 39.58,278.86 121.64,418.46 509.51,726.56 965.82,726.56l1858.55 0 2057.3 0zm-2057.3 -1839.6l0 701.58c0,225.56 -184.54,410.1 -410.1,410.1 -200.36,0 -368.36,-145.61 -403.39,-336.24 -4.41,-23.97 -6.71,-48.66 -6.71,-73.86l0 -428.01 0 -273.57 0 -1126.85 0 -109.8 0 -260.3 0 -579.17 0 -1416.39c0,-225.56 184.54,-410.1 410.1,-410.1 225.56,0 410.1,184.54 410.1,410.1l0 2365.66 0 1126.85zm-820.2 -1126.85l0 1126.85 0 -1126.85z"/>
   <polygon class="fil8 str1" points="16639.72,40793.3 16639.72,46124.41 16639.72,47170.51 18697.02,47170.51 18697.02,40793.3 "/>
   <path class="fil4 str1" d="M20697.66 40793.73l0 8129.46 2057.3 0 0 -1752.25 1858.55 0c552.96,0 1005.4,-452.43 1005.4,-1005.42l0 -4366.37c0,-552.99 -452.44,-1005.42 -1005.4,-1005.42l-1858.55 0 -2057.3 0zm2057.3 1138.02c0,-225.56 184.54,-410.1 410.1,-410.1 200.36,0 368.36,145.61 403.39,336.24 4.41,23.97 6.71,48.66 6.71,73.86l0 428.01 0 273.57 0 1126.85 0 109.8 0 260.3 0 579.17 0 1416.39c0,225.56 -184.54,410.1 -410.1,410.1 -225.56,0 -410.1,-184.54 -410.1,-410.1l0 -2365.66 0 -1828.43zm0 701.58l0 -701.58 0 701.58zm0 1126.85l0 -1126.85 0 1126.85zm820.2 0l0 -1126.85 0 1126.85z"/>
   <path class="fil4 str1" d="M13095.8 45321.08l0 -1126.85 0 -109.8 0 -260.3 0 -579.17 0 -1416.39c0,-225.56 184.54,-410.1 410.1,-410.1 225.56,0 410.1,184.54 410.1,410.1l0 430.7 0 1934.96 0 1828.43c0,225.56 -184.54,410.1 -410.1,410.1 -200.36,0 -368.36,-145.61 -403.39,-336.24 -4.41,-23.97 -6.71,-48.66 -6.71,-73.86l0 -428.01 0 -273.57zm820.2 -3061.81l0 -430.7 0 430.7zm0 1934.96l0 -1934.96 0 3763.39 0 -1828.43zm2057.3 2966.45l0 -8129.46 -2057.3 0 0 1752.25 -1858.55 0c-552.96,0 -1005.4,452.43 -1005.4,1005.42l0 1456.07 0 2910.3c0,96.65 13.82,190.23 39.58,278.86 121.64,418.46 509.51,726.56 965.82,726.56l1858.55 0 2057.3 0z"/>
   <polygon class="fil8 str1" points="16639.72,40793.3 16639.72,46124.41 16639.72,47170.51 18697.02,47170.51 18697.02,40793.3 "/>
   <polygon class="fil4 str1" points="16639.72,40301.19 18697.02,40301.19 18697.02,39041.05 16639.72,39041.05 "/>
   <polygon class="fil4 str1" points="18697.02,40793.3 16639.72,40793.3 16639.72,46124.41 16639.72,47170.51 18697.02,47170.51 "/>
   <path class="fil4 str1" d="M26165.93 46124.74c0,96.65 13.82,190.23 39.58,278.86 121.64,418.46 509.51,726.56 965.82,726.56l2910.45 0c552.96,0 1005.4,-452.43 1005.4,-1005.42l0 -4365.15 2.32 0 0 -1005.42 -958.07 0c-16.44,-0.81 -33.01,-1.22 -49.65,-1.22l-1051.9 0 0 1045.1 0 2365.66 0 1126.85 0 701.58c0,12.92 -0.61,25.71 -1.79,38.34 -19.49,207.76 -195.67,371.76 -408.31,371.76 -200.36,0 -368.36,-145.61 -403.39,-336.24 -4.41,-23.97 -6.71,-48.66 -6.71,-73.86l0 -428.01 0 -273.57 0 -819.47 0 -307.38 0 -109.8 0 -260.3 0 -579.17 0 -2461.49 -2043.75 0 0 1005.42 0 4366.37z"/>
   <path class="fil4 str1" d="M31918.54 41502.91l0 3039.48 13.34 0 0 1309.32c0,703.61 452.44,1279.27 1005.4,1279.27l1038.48 0 0 -12.72 609.33 11.13 475.91 0 0 -911.87 -675.27 0c-225.44,0 -409.9,-234.55 -410.1,-521.34 0,-0.15 0,-0.31 0,-0.46l0 -557.32 0 -348.08 0 -1042.68 0 -378.37 0 -152.43 0 -331.2 0 -736.93 0 -645.8 1171.14 0 0 -800.19 -1171 0 0.07 -1825.79 -2057.3 0 0 1825.79 -370.1 0 0 800.19 370.1 0z"/>
   <path class="fil4 str1" d="M35563.68 40685.79l0 6377.21 2057.3 0 0 -1138.02 0 -701.58 0 -3492.51c0,-225.56 184.54,-410.1 410.1,-410.1 225.56,0 410.1,184.54 410.1,410.1l0 702.02 2043.75 0 0 -741.7c0,-552.99 -452.44,-1005.42 -1005.4,-1005.42l-1858.55 0 -2057.3 0z"/>
  </g>
 </g>
</svg>
